# xmcd
#
# Track frame offsets:
#	150
#	4482
#	30852
#	44120
#	51467
#	65232
#	67972
#	71562
#	85245
#	107325
#	127705
#	138230
#	149885
#	170937
#	185635
#	199907
#	219092
#	239577
#	241125
#	252312
#	257695
#	276140
#	286872
#	301942
#	323410
#
# Disc length: 4427 seconds
#
# Revision: 1
# Processed by: cddbd v1.4PL0 Copyright (c) Steve Scherf et al.
# Submitted via: dBpowerAMP V4.0
#
DISCID=7b114919
DTITLE=Tupac - The Rose That Grew From Concrete
DYEAR=2000
DGENRE=Rap
TTITLE0=Tupac Interlude
TTITLE1=Wake me When I'm Free
TTITLE2=Can u c The Pride in The Panthers
TTITLE3=When Ure Heart Turns Cold
TTITLE4=U r Rippin us Apart
TTITLE5=Tears of a Teenage Mother
TTITLE6=God
TTITLE7=And, Still I Love You
TTITLE8=Can u c The Pride in The Panthers
TTITLE9=If There be Pain
TTITLE10=A River That Flows Forever
TTITLE11=The Rose That Grew From Concrete
TTITLE12=In The Event of my Demise
TTITLE13=What of a Love Unspoken
TTITLE14=Sometimes I Cry
TTITLE15=The Fear in The Heart of a Man
TTITLE16=Starry Night
TTITLE17=What of Fame?
TTITLE18=Only 4 The Righteous
TTITLE19=Why Must u be Unfaithful
TTITLE20=Wife 4 Life
TTITLE21=Lady Liverty Needs Glasses
TTITLE22=Family Tree
TTITLE23=Thug Blues
TTITLE24=The Sun and The Moon
EXTD=
EXTT0=
EXTT1=
EXTT2=
EXTT3=
EXTT4=
EXTT5=
EXTT6=
EXTT7=
EXTT8=
EXTT9=
EXTT10=
EXTT11=
EXTT12=
EXTT13=
EXTT14=
EXTT15=
EXTT16=
EXTT17=
EXTT18=
EXTT19=
EXTT20=
EXTT21=
EXTT22=
EXTT23=
EXTT24=
PLAYORDER=
